# xmcd
#
# Track frame offsets:
#	150
#	915
#	24134
#	48055
#	90563
#	121078
#	159636
#
# Disc length: 2612 seconds
#
# Revision: 1
# Processed by: cddbd v1.5.2PL0 Copyright (c) Steve Scherf et al.
# Submitted via: audiograbber 1.83.01
#
DISCID=380a3207
DTITLE=Johnny Winter - Live Bootleg Series Vol. 11
DYEAR=2014
DGENRE=Blues
TTITLE0=Opening
TTITLE1=E-Z Rider
TTITLE2=Boot Hill
TTITLE3=Long Distance Call
TTITLE4=Baby What's Wrong
TTITLE5=She Moves Me
TTITLE6=Rollin' And Tumblin'
EXTD=
EXTT0=
EXTT1=
EXTT2=
EXTT3=
EXTT4=
EXTT5=
EXTT6=
PLAYORDER=
